<?xml version="1.0" standalone="no"?>
<!DOCTYPE svg PUBLIC "-//W3C//DTD SVG 20010904//EN"
 "http://www.w3.org/TR/2001/REC-SVG-20010904/DTD/svg10.dtd">
<svg version="1.0" xmlns="http://www.w3.org/2000/svg"
 width="260.000000pt" height="260.000000pt" viewBox="0 0 260.000000 260.000000"
 preserveAspectRatio="xMidYMid meet">
<metadata>
Created by potrace 1.14, written by Peter Selinger 2001-2017
</metadata>
<g transform="translate(0.000000,260.000000) scale(0.100000,-0.100000)"
fill="#000000" stroke="none">
<path d="M920 2309 c-36 -5 -72 -12 -80 -16 -8 -3 -25 -7 -38 -9 -12 -1 -36
-10 -53 -18 -17 -9 -35 -13 -40 -10 -5 3 -9 0 -9 -6 0 -6 -4 -8 -10 -5 -5 3
-10 1 -10 -5 0 -6 -4 -8 -10 -5 -5 3 -10 2 -10 -3 0 -4 -15 -16 -34 -24 -34
-17 -143 -108 -129 -108 4 0 0 -5 -9 -11 -10 -5 -18 -15 -18 -20 0 -6 -6 -17
-14 -24 -32 -33 -37 -141 -34 -785 l3 -635 24 -50 c19 -41 89 -118 153 -170
19 -15 128 -62 163 -71 17 -4 34 -9 40 -12 5 -4 16 -7 25 -8 8 -2 29 -5 45 -9
111 -22 256 -23 400 -1 11 2 28 6 37 10 9 4 22 5 28 1 5 -3 10 -2 10 3 0 6 15
13 34 16 37 7 159 65 164 78 2 4 7 8 12 8 5 0 35 26 67 58 68 69 92 123 100
229 l6 73 36 6 c20 4 42 11 49 17 6 5 12 6 12 2 0 -4 7 -2 15 5 8 7 15 10 15
7 0 -10 152 70 182 95 15 13 35 30 45 38 10 8 35 36 56 62 85 107 120 247 93
375 -14 71 -40 137 -61 159 -5 6 -17 22 -25 34 -25 39 -72 90 -81 90 -5 0 -18
8 -28 18 -34 31 -51 43 -51 37 0 -2 -8 2 -17 10 -10 8 -22 15 -27 14 -5 0 -12
3 -15 8 -7 10 -120 49 -168 58 -29 6 -33 11 -34 38 0 18 -2 43 -4 57 -3 14 -7
42 -10 64 -3 21 -12 51 -20 67 -24 45 -106 129 -155 157 -25 14 -48 31 -52 37
-4 5 -8 7 -8 2 0 -4 -10 -1 -23 8 -12 8 -32 16 -42 18 -11 1 -26 6 -32 10 -51
32 -341 54 -463 36z m878 -757 c68 -27 149 -92 176 -142 50 -92 30 -212 -46
-275 -18 -14 -42 -33 -52 -42 -21 -17 -121 -63 -136 -63 -6 0 -10 102 -10 270
0 210 3 270 13 269 6 0 31 -8 55 -17z"/>
</g>
</svg>
